<svg class="svg-logo" viewBox="0 0 62 62" xmlns="http://www.w3.org/2000/svg"><title>Sparkbox</title><g class="logo--group"><path class="logo--path logo--icon-box" d="M59.683 62.016H2.333A2.34 2.34 0 0 1 0 59.683V2.333A2.34 2.34 0 0 1 2.332 0h57.35a2.34 2.34 0 0 1 2.333 2.333v57.35a2.34 2.34 0 0 1-2.332 2.333z"/><path class="logo--path logo--icon" fill="#FFF" d="M50.086 29.711H17.357l20.445-13.79-6.225 10.564a.328.328 0 0 0 .29.484v.002h2.472v-.003h5.873l.1.003a5.71 5.71 0 0 0 .73-11.374l4.171-7.084a.315.315 0 0 0 .06-.185.328.328 0 0 0-.328-.328.314.314 0 0 0-.186.06v-.002l-3.856 2.6-.002.006-7.254 4.89H17.06a.327.327 0 0 0-.326.312v11.098l-7.068 4.768a.33.33 0 0 0-.166.283c0 .18.149.326.33.326h3.625l.008-.004h29.102L23.672 45.08l5.584-9.481a.35.35 0 0 0 .062-.192.324.324 0 0 0-.315-.327H17.06a.327.327 0 0 0-.327.327V46.17c0 .178.144.321.322.323h2.734l-3.527 5.994a.317.317 0 0 0-.056.182c0 .18.148.328.328.328a.341.341 0 0 0 .19-.061l9.543-6.438h14.044a5.71 5.71 0 0 0 2.221-10.971l7.705-5.195a.326.326 0 0 0 .176-.292.327.327 0 0 0-.328-.328zm-9.804-11.53h.03a3.08 3.08 0 1 1 0 6.162l-.03-.001h-4.396l3.633-6.16h.763zm-20.921 0h10.396L19.36 25.19v-7.01zm0 25.687v-6.162h5.607l-3.63 6.162h-1.977zm24.033-3.08c0 1.7-1.379 3.08-3.082 3.08H30.167l9.133-6.16h1.012a3.08 3.08 0 0 1 3.082 3.08z"/></g></svg>