<svg xmlns="http://www.w3.org/2000/svg" class="page" width="65" height="65" viewBox="0 0 65 65"><title>Sparkbox</title><path class="logo--path logo--icon" d="M58.591 31.073H15.698L42.492 13l-8.158 13.845a.43.43 0 0 0 .379.635v.001h3.24v-.003h7.697l.132.003a7.483 7.483 0 0 0 .957-14.905l5.466-9.285a.413.413 0 0 0 .078-.242.43.43 0 0 0-.43-.43.411.411 0 0 0-.243.078v-.002l-5.053 3.409-.004.007-9.506 6.408H15.308a.429.429 0 0 0-.427.41v14.543l-9.264 6.25a.434.434 0 0 0-.217.371.43.43 0 0 0 .433.427h4.75l.01-.006h38.142L23.973 51.215l7.318-12.426a.46.46 0 0 0 .082-.25.425.425 0 0 0-.413-.43H15.31a.429.429 0 0 0-.43.43v14.103c0 .233.189.421.422.424h3.584l-4.623 7.855a.415.415 0 0 0-.073.24c0 .234.194.43.43.43a.447.447 0 0 0 .25-.081l12.506-8.438h18.406a7.482 7.482 0 0 0 7.483-7.481c0-3.1-1.883-5.763-4.572-6.897l10.097-6.809a.427.427 0 0 0 .231-.382c0-.237-.19-.43-.43-.43zm-12.849-15.11l.04-.002a4.037 4.037 0 1 1 0 8.077l-.04-.002-5.76.002 4.76-8.075h1zm-27.419-.002h13.625l-13.625 9.187V15.96zm0 33.666v-8.076h7.35l-4.758 8.076h-2.592zm31.498-4.036a4.039 4.039 0 0 1-4.04 4.036H32.486l11.97-8.073h1.327a4.037 4.037 0 0 1 4.04 4.037z"/></svg>