<svg xmlns="http://www.w3.org/2000/svg" width="400" height="400" viewBox="0 0 400 400"><title>Sparkbox</title><path d="M259.883 157.044c.057 0 .146.006.196.006 10.986 0 19.886-8.899 19.886-19.882 0-10.983-8.899-19.876-19.886-19.876-.051 0-.14.01-.196.01h-4.921l-23.438 39.748 28.359-.006zM124.908 243.267v39.754h12.757l23.419-39.754zM124.908 117.293v45.224l67.07-45.224zM260.079 243.279h-6.532l-58.923 39.742h65.455c10.986 0 19.886-8.908 19.886-19.869 0-10.98-8.9-19.873-19.886-19.873z"/><path d="M385.049 0H15.047C6.77 0 0 6.773 0 15.05v370.002c0 8.277 6.77 15.05 15.047 15.05h370.001c8.277 0 15.051-6.772 15.051-15.05V15.05C400.1 6.773 393.326 0 385.049 0zm-60.933 195.683L274.409 229.2c13.235 5.584 22.509 18.693 22.509 33.953 0 20.338-16.49 36.829-36.839 36.829h-90.61l-61.565 41.534c-.352.234-.765.396-1.228.396a2.128 2.128 0 0 1-2.116-2.115c0-.454.133-.842.362-1.178l22.756-38.67h-17.643a2.09 2.09 0 0 1-2.075-2.084v-69.43a2.11 2.11 0 0 1 2.11-2.113h77.044c1.139.025 2.034.965 2.034 2.113 0 .469-.165.854-.403 1.234l-36.024 61.168 121.894-82.215H86.857l-.054.028H63.422c-1.174 0-2.132-.938-2.132-2.101 0-.779.435-1.453 1.069-1.83l45.602-30.76v-71.597a2.113 2.113 0 0 1 2.104-2.015H217.08L263.878 68.8l.016-.035 24.875-16.779v.009a2.027 2.027 0 0 1 1.199-.384c1.164 0 2.113.949 2.113 2.119 0 .432-.131.834-.381 1.19l-26.909 45.706c18.115 2.31 32.128 17.792 32.128 36.541 0 20.339-16.49 36.836-36.839 36.836-.212 0-.419-.006-.647-.016h-37.889v.016h-15.955v-.006a2.116 2.116 0 0 1-2.125-2.11c0-.377.111-.714.26-1.015l40.16-68.158-131.899 88.97h211.152c1.177 0 2.116.949 2.116 2.116a2.107 2.107 0 0 1-1.137 1.883z"/></svg>